<?xml version="1.0" standalone="no"?>
<!DOCTYPE svg PUBLIC "-//W3C//DTD SVG 20010904//EN"
 "http://www.w3.org/TR/2001/REC-SVG-20010904/DTD/svg10.dtd">
<svg version="1.0" xmlns="http://www.w3.org/2000/svg"
 width="512.000000pt" height="512.000000pt" viewBox="0 0 512.000000 512.000000"
 preserveAspectRatio="xMidYMid meet">

<g transform="translate(0.000000,512.000000) scale(0.100000,-0.100000)"
fill="#ABD7F8" stroke="none">
<path d="M2425 5089 c-624 -31 -1207 -291 -1655 -739 -404 -404 -654 -915
-725 -1481 -20 -161 -20 -457 0 -619 70 -560 319 -1072 715 -1471 408 -410
924 -664 1490 -734 161 -20 459 -20 620 0 1152 143 2062 1053 2205 2205 20
161 20 459 0 620 -142 1153 -1064 2072 -2210 2204 -162 19 -274 23 -440 15z
m1023 -1322 l372 -372 0 -1218 0 -1217 -1260 0 -1260 0 0 1590 0 1590 888 0
887 0 373 -373z"/>
<path d="M1737 3870 c-98 -25 -182 -95 -225 -189 -22 -47 -27 -70 -27 -141 0
-101 28 -173 92 -237 63 -63 123 -87 229 -91 83 -4 97 -2 152 23 33 15 75 42
93 61 l33 34 -44 45 -44 45 -26 -25 c-52 -50 -150 -70 -217 -44 -71 27 -123
108 -123 194 0 72 18 114 66 153 78 64 198 61 270 -9 l33 -32 45 49 46 49 -45
42 c-25 22 -66 48 -92 58 -59 20 -165 27 -216 15z"/>
<path d="M2253 3545 l131 -325 62 0 61 0 111 273 c61 149 120 296 131 325 l21
52 -78 0 -78 0 -80 -201 c-44 -110 -84 -201 -88 -202 -5 -1 -45 89 -89 201
l-80 202 -78 0 -78 0 132 -325z"/>
</g>
</svg>
